<svg width="718.745" height="617.556" xmlns="http://www.w3.org/2000/svg"><ellipse style="fill:#fff;stroke-width:4.03399" cx="361.187" cy="300.423" rx="275.551" ry="282.837"/><path fill="#010126" d="M351.307.277c17.53-.911 35.183.304 52.04 5.453 6.744 2.06 13.26 4.99 20.017 6.923 3.015.863 6.197 1.313 9.274 1.918 19.143 3.767 37.97 11.351 55.413 19.944 53.934 26.57 94.828 63.763 128.242 113.587 7.312-6.46 15.587-11.6 23.97-16.529 19.292-11.339 39.288-20.258 60.042-28.533 3.96-1.579 12.726-5.699 16.769-5.814.507-.015.546-.125.817.233 1.303 1.723.737 7.625.702 9.846-1.25 79.056-16.948 144.392-75.355 200.972 5.738 2.97 10.88 7.264 15.785 11.443q1.872 1.574 3.693 3.208 1.82 1.633 3.59 3.323t3.484 3.435 3.374 3.542q1.659 1.798 3.26 3.647 1.603 1.85 3.146 3.747 1.543 1.9 3.025 3.845t2.903 3.938q1.42 1.992 2.777 4.027t2.65 4.113q1.292 2.077 2.519 4.194 1.226 2.116 2.385 4.271 1.16 2.154 2.25 4.344t2.113 4.412q1.02 2.223 1.972 4.477.95 2.254 1.83 4.537c11.2 29.082 13.37 59.217 13.715 90.07.044 3.928.954 13.063-.671 16.218-.25.482-.171.49-.672.62-3.124.803-10.993-1.776-14.431-2.626-30.136-7.448-54.43-15.922-80.782-32.445-32.593 49.75-72.375 90.648-127.053 115.858-8.452 3.898-17.417 8.04-26.298 10.835 1.87 3.958 4.87 7.616 7.408 11.173 4.143 5.488 8.768 10.685 13.044 16.086-11.972 4.53-25.881 7.268-38.633 8.407-34.652 3.097-67.454-6.175-94.228-28.534-7.226 1.127-15.09.867-22.401.862-26.895-.018-51.074-2.167-77.463-7.531q-16.053-3.25-31.748-7.93t-30.906-10.752C128.45 537.065 44.334 481.29 5.61 422.82c6.243-7.521 15.413-12.788 22.401-19.673-5.843-2.31-23.03-6.104-26.753-9.383-.881-.776-1.199-1.535-1.246-2.696-.233-5.795 2.927-14.38 4.798-19.981 9.777-29.265 26.25-55.49 46.992-78.25 3.625-3.976 7.544-7.706 11.324-11.537.823-4.461 1.22-9.07 1.87-13.567q1.803-12.244 4.481-24.326c10.409-45.22 32.953-88.873 62.255-124.736 8.809-10.781 17.883-21.06 28.026-30.62 29.049-27.384 68.493-52.482 106.09-65.842 7.45-2.647 15.255-5.099 22.945-6.95 4.184-1.008 8.52-1.607 12.656-2.764 4.516-1.264 8.772-3.582 13.263-5.01 12.035-3.83 24.049-5.942 36.595-7.209M237.01 62.805c-7.604 2.665-17.362 9.905-24.176 14.53-44.405 30.138-78.44 71.336-101.66 119.62-4.37 9.09-20.137 51.183-19.315 59.843.143-.047.286-.09.428-.142 6.675-2.38 15.409-10.37 22.056-14.2 14.742-8.493 33.513-18 50.545-20.25 12.809-1.69 26.426-.888 39.347-.861l-.043-44.253c-.012-21.527-.86-38.775 5.297-59.862 3.202-10.965 7.456-22.005 13.009-32 1.348-2.428 2.743-4.886 4.318-7.175 2.137-3.106 10.187-12.186 10.194-15.25m248.485-1.367q.077.183.158.364c1.826 3.994 5.258 7.816 7.819 11.408 3.872 5.43 7.484 11.327 10.284 17.392q2.512 5.375 4.63 10.918t3.829 11.224 3.008 11.471 2.172 11.658c1.407 10.13.789 21.287.763 31.545q-.268 26.368-.15 52.737c9.807.414 18.337 2.011 26.758 7.387 3.03 1.934 5.883 4.288 9.003 6.044 3.93-10.34 7.79-20.298 13.398-29.88 8.575-13.988 17.928-27.344 30.272-38.28-22.955-38.008-55.41-69.32-92.701-93.137-5.217-3.332-12.835-9.348-18.644-10.725-.198-.047-.4-.084-.6-.126M354.69 103.682c-16.164 2.066-29.857 9.878-39.874 22.796-10.068 12.985-12.867 26.86-12.951 42.974-.023 4.517-.12 9.187.445 13.673q.055.438.125.873c4.029-2.271 7.808-4.918 11.873-7.137 10.78-5.885 22.113-10.136 33.868-13.607 25.174-7.004 45.616-8.836 71.702-9.115-1.62-14.626-9.681-28.218-21.111-37.402-12.053-9.685-28.61-14.672-44.004-13.069q-.037.006-.073.014" style="display:inline"/><path fill="#02c2fe" d="M677.236 141.01c4.603-2.093 9.183-4.272 13.904-6.09q-.234 5.85-.75 11.68c-4.836 1.334-9.648 5.293-13.993 6.367q.669-5.962.839-11.957" style="display:inline"/><path fill="#fefefe" d="M76.434 421.544q2.422 4.05 4.665 8.2c-12.604-.833-25.351-.726-37.978-.547l-5.805-7.065 24.04-.293c5.006-.045 10.087.09 15.078-.296"/><path fill="#236eec" d="M567.455 296.499c1.09 2.8.335 17.235.31 21.434 5.947.257 11.91.135 17.845.405-.182 1.271-.364 2.551-.655 3.802-2.287 9.815-8.997 19.418-17.524 24.774-.14-4.939.166-9.909.132-14.855-.08-11.839-.335-23.725-.108-35.56" style="display:inline"/><path fill="#02c2fe" d="M567.455 296.499c-.097-4.548-.264-9.1-.046-13.646 8.358 4.165 13.878 11.302 16.789 20.13 1.659 5.033 1.814 10.106 1.412 15.355-5.934-.27-11.898-.148-17.845-.405.025-4.198.78-18.634-.31-21.434"/><path fill="#236eec" d="M431.515 573.512c1.433.305 12.348 16.565 13.959 19.007-12.084.494-23.174-.362-34.961-3.119q-9.236-2.39-17.874-6.44c5.797-1.582 11.794-2.519 17.662-3.827q10.696-2.474 21.214-5.622"/><path fill="#fefefe" d="M312.543 210.994c27.715-25.197 71.8-29.493 107.718-31.152l-.07 6.638-.512.1c-7.723 1.466-15.761 1.665-23.558 2.775-14.833 2.114-29.95 5.217-44.48 8.88-7.896 1.99-15.874 4.343-23.48 7.262-4.326 1.66-8.7 3.983-13.106 5.318-1.105.336-1.411.49-2.512.179" style="display:inline"/><path fill="#02c2fe" d="M420.19 186.48c.147 3.44.16 6.883.299 10.32-24.315 1.174-87.905 12.904-107.363 24.001a5.8 5.8 0 0 1-1.405.566l-9.493-.008q2.29-2.865 4.876-5.464t5.439-4.902c1.1.312 1.407.158 2.512-.177 4.406-1.335 8.78-3.66 13.106-5.318 7.606-2.92 15.584-5.272 23.48-7.263 14.53-3.664 29.647-6.767 44.48-8.88 7.797-1.11 15.835-1.308 23.558-2.774z" style="display:inline"/><path fill="#236eec" d="M311.72 221.367a5.8 5.8 0 0 0 1.406-.565c19.458-11.097 83.048-22.827 107.363-24.001q.112 12.29-.054 24.58l-70.671-.04c-12.571.04-25.513.815-38.043.025" style="display:inline"/><path fill="#acc0e9" d="M567.814 403.753c2.67 1.45 8.596 11.038 10.996 14.058 6.602 8.309 13.712 15.638 21.76 22.557-24.188 36.384-54.206 70.327-91.598 93.506-7.203 4.507-14.648 9.433-22.293 13.123 6.632-5.22 13.857-9.544 20.314-14.998q4.277-3.66 8.3-7.595 4.025-3.936 7.777-8.131t7.216-8.633q3.464-4.436 6.624-9.094c20.07-29.427 27.929-59.643 30.904-94.793" style="display:inline"/><path fill="#236eec" d="M219.6 350.336c7.22 41.518-.58 82.18-24.86 116.78-10.258 14.619-32.38 35.974-48.253 44.144-4.152-2.443-8.173-5.093-12.316-7.545-2.974-1.76-6.126-3.288-9.003-5.202-6.587-4.384-12.944-9.291-19.457-13.817-7.326-5.092-15.017-10.179-21.963-15.768-7.76-6.244-15.15-13.25-22.344-20.136-5.488-5.253-11.129-10.412-15.713-16.509 4.009-.682 8.58-.37 12.66-.464 22.987 15.554 59.706 42.198 87.955 42.477 10.993.11 19.026-3.382 26.775-11.106 16.554-16.5 27.746-41.07 31.254-64.049 1.713-11.225 1.75-22.165 1.794-33.465.242-1.208.256-2.932.928-3.949 1.092-1.652 3.46-2.789 4.776-4.345 1.516-1.794 2.375-4.119 4.019-5.817 1.147-1.184 2.213-1.186 3.749-1.23" style="display:inline"/><path fill="#000003" d="M564.637 232.41c-1.957-.764-4.876-1.6-5.906-3.609-.451-.88-.443-1.579-.089-2.481.887-2.258 4.69-3.407 6.725-4.248l.149.8c-1.197 1.172-4.145 2.689-4.662 4.145.216 1.236.869 1.942 1.858 2.651 1.011.725 2.272 1.281 2.878 2.378-.762.357-.432.276-.953.364" style="display:inline" transform="translate(-22.994 -51.965)"/><path fill="#010126" d="M542.373 170.107c1.864-1.377 4.852-2.718 5.126-5.278.441-4.137-.861-12.178 3.066-14.866.989-.677 2.247-.623 3.343-.286 1.703.524 3.436 1.466 4.193 3.154 1.777 3.966-1.275 10.712 1.389 13.9 2.136 2.556 12.826 5.988 11.291 9.64-.988 2.351-9.638 6.53-12.231 8.632-.009 3.858.926 12.331-2.332 15.112-1.028.878-2.468 1.067-3.76.841-1.41-.246-2.984-1.083-3.734-2.348-1.675-2.823-.584-10.866-1.034-14.573l-.022-.204c-2.006-1.102-4.101-2.15-6.025-3.386.521-.088.191-.007.953-.364-.606-1.097-1.867-1.653-2.878-2.378-.989-.709-1.642-1.415-1.858-2.651.517-1.456 3.465-2.973 4.662-4.145zm-378.128-16.712c.872-1.462 1.875-2.595 3.589-3.042q.429-.113.872-.139t.882.037q.44.063.858.212.418.148.798.377c1.357.813 2.168 2.08 2.46 3.613.048.254.085.51.121.766.984 3.462.346 8.573.704 12.285 3.247 2.497 7.646 3.654 10.616 6.508.804.772.925 1.102.932 2.197-2.111 3.287-7.932 5.247-11.12 7.688q-.2.156-.399.314c-.699 4.548.664 11.282-1.929 15.212-.595.903-1.478 1.626-2.581 1.773-1.328.176-2.693-.436-3.695-1.27-4.03-3.353-2.425-11.094-2.706-15.85-3.375-2.257-8.995-3.988-11.613-6.872-.729-.803-.836-1.243-.837-2.301 1.753-2.959 6.863-4.07 9.746-5.878 4.792-3.007 2.287-10.731 3.302-15.63"/><path fill="#000003" d="M164.245 153.395c.872-1.462 1.875-2.595 3.589-3.042q.429-.113.872-.139t.882.037q.44.063.858.212.418.148.798.377c1.357.813 2.168 2.08 2.46 3.613.048.254.085.51.121.766-1.468-.271-2.928-1.923-4.262-2.695-.892-.058-1.347.121-2.119.521-.602.312-.958.486-1.629.667.373-.716 1.106-1.336 1.66-1.927l-.519-.072c-.953.655-1.381 1.33-1.98 2.316l-.227.381z"/><path fill="#fefefe" d="M598.496 309.403c1.78-7.195 3.507-14.381 5.97-21.38 16.286-46.282 52.981-74.544 95.764-95.048q-.17 5.995-.839 11.956l-.349.4c-8.196 3.868-15.693 8.498-23.235 13.509-24.509 16.287-44.574 36.481-59.101 62.172-3.626 6.412-6.975 12.923-9.447 19.88-1.385 3.898-2.612 7.917-3.168 12.026a74 74 0 0 0-5.595-3.515" style="display:inline" transform="translate(-22.994 -51.965)"/><path fill="#02c2fe" d="M699.042 205.331c-2.604 15.568-5.701 31.107-11.29 45.924-12.217 32.383-36.185 59.552-61.566 82.355-6.075-8.841-13.3-14.752-22.095-20.692.556-4.109 1.783-8.128 3.168-12.026 2.472-6.957 5.821-13.468 9.447-19.88 14.527-25.691 34.592-45.885 59.101-62.172 7.542-5.011 15.039-9.641 23.235-13.509" style="display:inline" transform="translate(-22.994 -51.965)"/><path fill="#236eec" d="M713.384 198.564c-.9 15.204-4.008 32.369-7.891 47.167-10.269 39.132-27.519 64.986-55.2 94.085-4.098 4.307-8.52 8.251-12.653 12.503 1.674 5.111 2.664 10.639 3.359 15.966.301 2.311.277 5.155.9 7.369.106.376.312.827.633 1.073 35.013 21.152 50.98 41.164 63.93 79.997 4.357 12.253 7.617 39.457 7.763 52.747q-2.551-.775-5.08-1.62c-33.254-11.075-58.326-24.334-82.496-49.973-10.107-10.722-18.688-22.224-25.302-35.464 15.804-11.876 26.723-21.54 31.768-41.626 4.076-16.229 1.646-32.909-6.929-47.178 25.381-22.803 49.349-49.972 61.566-82.355 5.589-14.817 8.686-30.356 11.29-45.924l.349-.4c4.345-1.074 9.157-5.033 13.993-6.367" style="display:inline" transform="translate(-22.994 -51.965)"/><path fill="#02c2fe" d="M642.532 376.727c35.013 21.152 50.98 41.164 63.93 79.997-5.883.013-11.588-.433-17.373-1.516q1.626 4.908 2.654 9.975t1.443 10.22c-6.909-2.207-13.496-5.501-20.033-8.609-23.261-11.062-42.757-23.6-58.577-44.432 3.11-2.551 6.412-4.88 9.395-7.582 7.706-6.979 14.168-16.642 16.826-26.767.917-3.491.591-7.34 1.57-10.742q.081-.273.165-.544" style="display:inline" transform="translate(-22.994 -51.965)"/><path fill="#6a99df" d="M491.131 135.04c2.204 11.623 1.465 24.343 1.481 36.16l.049 50.154c-3.785-.046-7.563-.104-11.347.019q-.256-18.88-.039-37.763c1.165-5.336-5.077-23.401 1.228-26.402.423-.932 1.519 2.662 1.349 1.698 4.5-8.196 6.597-14.561 7.279-23.866"/><path fill="#fefefe" d="m252.536 273.44.054-51.415c.039-9.863-.347-20.101.677-29.912 2.324-22.269 12.586-43.981 25.915-61.785q.98-1.296 1.991-2.568t2.054-2.519q1.042-1.247 2.114-2.468t2.173-2.415 2.232-2.362 2.289-2.307 2.344-2.251 2.399-2.192q1.212-1.082 2.451-2.134 1.238-1.052 2.502-2.073t2.552-2.012q1.289-.99 2.601-1.948 1.312-.959 2.647-1.885t2.692-1.82 2.736-1.754 2.778-1.686 2.818-1.618 2.857-1.55q1.437-.756 2.893-1.478t2.929-1.408 2.962-1.337 2.994-1.263 3.024-1.19 3.052-1.117q1.532-.54 3.078-1.042t3.102-.966q1.558-.464 3.126-.89t3.146-.814 3.165-.737 3.182-.66 3.197-.582 3.21-.504c34.192-4.926 70.204 5.011 97.695 25.763 25.901 19.552 45.466 50.089 49.958 82.464-.682 9.305-2.779 15.67-7.279 23.866-.479.726-.828 1.686-1.68 1.916-1.1-3.339-.504-8.41-.553-11.982-.073-5.317-.149-10.927-1.122-16.161-.667-3.591-1.925-7.247-3.031-10.727-9.577-30.146-32.492-55.667-60.61-69.846-27.735-13.986-63.279-16.61-92.852-6.802q-1.452.488-2.891 1.011t-2.866 1.082-2.838 1.151-2.809 1.219-2.779 1.288-2.747 1.356-2.712 1.422q-1.348.727-2.678 1.487t-2.64 1.553q-1.31.792-2.601 1.616t-2.561 1.68q-1.271.855-2.52 1.741t-2.476 1.803q-1.227.916-2.432 1.862t-2.385 1.921q-1.181.975-2.338 1.979-1.157 1.003-2.289 2.035-1.132 1.031-2.238 2.09t-2.187 2.145q-1.081 1.085-2.134 2.197-1.054 1.111-2.08 2.248t-2.024 2.299q-.998 1.161-1.967 2.347t-1.91 2.395q-.94 1.208-1.851 2.44-.91 1.231-1.79 2.485t-1.73 2.527q-.849 1.275-1.667 2.57t-1.604 2.609-1.54 2.647-1.475 2.685q-.721 1.351-1.409 2.719-1.754 3.5-3.243 7.12t-2.703 7.342q-1.215 3.721-2.149 7.523t-1.583 7.662c-1.891 11.569-1.35 23.473-1.407 35.157q-.221 24.276.018 48.552c-3.706.001-7.547-.206-11.227.206" style="display:inline" transform="translate(-22.994 -51.965)"/><path fill="#acc0e9" d="M263.763 273.234q-.24-24.276-.018-48.552c.057-11.684-.484-23.588 1.407-35.157a105 105 0 0 1 6.435-22.527 105 105 0 0 1 3.243-7.12 126 126 0 0 1 6.028-10.66 127 127 0 0 1 1.667-2.57 128 128 0 0 1 3.52-5.012 125 125 0 0 1 3.761-4.835 123 123 0 0 1 3.991-4.646 123 123 0 0 1 4.214-4.445 123 123 0 0 1 4.425-4.235 123 123 0 0 1 4.627-4.014 127 127 0 0 1 7.293-5.586q1.25-.886 2.52-1.741a123 123 0 0 1 5.162-3.296 125 125 0 0 1 13.556-7.106 124 124 0 0 1 11.404-4.463c29.573-9.808 65.117-7.184 92.852 6.802 28.118 14.179 51.033 39.7 60.61 69.846 1.106 3.48 2.364 7.136 3.031 10.727.973 5.234 1.049 10.844 1.122 16.161.049 3.572.304 11.272-.298 17.469-.603 5.543.329 11.685-.046 17.301q-.217 18.882.039 37.763c-5.601.757-11.679.262-17.353.342-5.823.081-11.972.81-17.758.14l-.056-.614c-.523-5.981-.23-12.134-.225-18.139l.047-27.22c.078-22.234-.434-39.28-13.124-58.603a88 88 0 0 0-11.813-14.483 88 88 0 0 0-4.59-4.228c-18.64-15.902-39.744-21.299-63.859-19.466-4.03.306-8.001 1.298-11.911 2.285-18.025 4.552-31.924 13.834-43.851 27.939-17.249 20.402-19.781 39.337-19.764 65.136l.024 26.504c.006 6.878.489 14.211-.467 21.025-6.901.088-13.775-.253-20.672-.297-4.78-.03-9.895.377-14.633-.087-3.857.082-7.936.319-11.767-.132 3.68-.412 7.521-.205 11.227-.206" style="display:inline" transform="translate(-22.994 -51.965)"/><path fill="#236eec" d="M285.687 273.39c-.205-1.806-.264-3.636-.289-5.453-.175-12.416-.061-24.854-.106-37.273-.044-12.154-.31-25.605 1.774-37.565 3.184-18.271 14.237-36.337 27.174-49.371q.871-.882 1.764-1.741t1.807-1.697q.914-.837 1.849-1.651.935-.813 1.89-1.603.955-.791 1.929-1.556.974-.766 1.968-1.508.993-.741 2.004-1.457t2.041-1.407 2.076-1.355q1.046-.665 2.108-1.303t2.141-1.25q1.078-.611 2.171-1.195t2.2-1.141q1.108-.557 2.229-1.086 1.121-.528 2.255-1.029t2.279-.972q1.146-.472 2.304-.915t2.326-.857 2.346-.799q1.178-.384 2.366-.739t2.384-.68 2.399-.62q1.204-.295 2.415-.56 1.211-.264 2.428-.499t2.439-.438 2.45-.377 2.459-.315 2.465-.254q1.235-.111 2.471-.192 1.237-.08 2.476-.129 1.238-.05 2.477-.068 1.24-.019 2.479-.006c20.927.013 50.617 9.8 65.481 24.723 13.554 13.61 23.833 28.5 28.892 47.203 1.11 4.105 2.175 8.303 2.587 12.542.841 8.651.299 17.81.306 26.512l-.05 48.018c7.118-.101 14.354-.392 21.457.011-5.601.757-11.679.262-17.353.342-5.823.081-11.972.81-17.758.14l-.056-.614c-.523-5.981-.23-12.134-.225-18.139l.047-27.22c.078-22.234-.434-39.28-13.124-58.603q-1.705-2.616-3.591-5.104t-3.944-4.835q-2.059-2.348-4.278-4.544-2.22-2.196-4.59-4.228c-18.64-15.902-39.744-21.299-63.859-19.466-4.03.306-8.001 1.298-11.911 2.285-18.025 4.552-31.924 13.834-43.851 27.939-17.249 20.402-19.781 39.337-19.764 65.136l.024 26.504c.006 6.878.489 14.211-.467 21.025-6.901.088-13.775-.253-20.672-.297-4.78-.03-9.895.377-14.633-.087 2.584-1.044 17.611-.23 21.384-.182" style="display:inline" transform="translate(-22.994 -51.965)"/><path fill="#fefefe" d="M29.476 377.612q1.964-5.06 4.021-10.082c21.762-52.162 69.462-95.639 121.364-116.956 3.4-1.397 6.7-2.59 10.416-2.748 5.407-.23 10.919.051 16.334.081l27.834-.016 101.707-.077 159.659.111c8.937.057 17.879.178 26.815.112 3.402-.024 6.844-.384 10.236-.317 1.155.023 2.382.225 3.436.714 2.16 1.002 3.038 2.91 3.815 5.032-.251 2.998-.861 5.69-3.345 7.65-2.161 1.703-4.811 2.067-7.476 2.113-4.891-.615-10.008-.316-14.93-.248q-9.336.14-18.675.133l-71.83.097-162.284-.237-54.59-.122c-5.352 0-17.157-.807-21.888.39-3.391.857-6.967 2.985-10.087 4.594q-11.537 5.921-22.505 12.84t-21.281 14.78q-2.27 1.73-4.491 3.523-2.222 1.793-4.392 3.647-2.17 1.855-4.288 3.77-2.118 1.913-4.182 3.885t-4.072 4.001-3.96 4.113q-1.95 2.085-3.842 4.222t-3.723 4.327-3.602 4.43q-1.77 2.24-3.477 4.527t-3.35 4.623-3.22 4.714-3.087 4.802-2.952 4.886-2.816 4.966-2.675 5.043c-2.689 5.372-5.445 10.767-7.161 16.543z" style="display:inline"/><path fill="#236eec" d="M519.948 253.076c.406-.656.702-1.203 1.02-1.902.702-1.53 2.387-2.487 3.93-2.997 2.252-.745 4.564-.285 6.627.789 4.756 2.477 8.36 8.916 10.015 13.854 1.376 5.087.53 33.507.546 40.998l.053 62.786c-.002 11.089.286 22.257-.094 33.334q-.32 11.82-2.136 23.505-.523 3.359-1.197 6.69-.675 3.332-1.5 6.629-.823 3.298-1.795 6.555t-2.091 6.467-2.38 6.366-2.665 6.252-2.945 6.125-3.218 5.986c-20.671 36.03-53.983 57.966-92.248 71.945-7.568 2.765-15.227 5.454-23.02 7.519-65.89 17.464-137.27 10.994-200.496-13.486-11.025-4.27-23.153-8.672-33.313-14.71l-.478-.288c6.45-4.614 12.398-10.043 18.423-15.2 3.45 1.503 6.676 3.438 10.184 4.9 7.622 3.18 15.406 5.554 23.209 8.222-1.108-4.336-2.301-8.744-2.441-13.241-.171-5.54 1.867-8.614 5.52-12.45.544-.992 1.112-1.991 1.74-2.933 1.855-2.784 4.447-5.493 7.866-6.121 3.767-.693 6.78 1.364 9.753 3.328 2.427 2.327 3.834 4.773 5.323 7.745 21.134 1.968 36.97 9.073 50.64 25.66 1.155 1.4 2.364 2.698 2.958 4.436 3.55.375 6.53.906 9.808 2.346 3.356 2.275 5.668 3.964 6.943 7.988 8.089 1.178 18.364.306 26.51-.451 6.23-.578 12.584-.963 18.765-1.924 7.516-1.168 14.712-3.124 22.07-4.975 4.182-1.052 8.482-1.72 12.636-2.866 13.502-3.725 27.353-9.103 39.8-15.474 26.596-13.612 52.446-36.028 58.029-66.816 1.946-10.733 1.806-22.096 1.822-32.977l.015-28.386c.003-13.724-.206-27.486.05-41.206.087-4.574.68-9.114.825-13.684.265-8.351.086-16.756.08-25.113-.006-8.133-1.013-36.373 1.023-42.54l.178-.532c2.665-.045 5.315-.41 7.476-2.113 2.484-1.96 3.094-4.651 3.345-7.65 1.27.706 2.569.755 3.964.434.293-.381.392-.71.87-.824" style="display:inline"/><path fill="#fefefe" d="M519.948 253.076c.406-.656.702-1.203 1.02-1.902.702-1.53 2.387-2.487 3.93-2.997 2.252-.745 4.564-.285 6.627.789 4.756 2.477 8.36 8.916 10.015 13.854-3.807.409-7.721.255-11.547.268l.023 93.786c0 5.56.666 29.09-.263 32.751-.714.574-1.22.576-2.107.5-.051-.005-.983-.126-1.051-.178-1.195-.922-.628-12.53-.62-14.771l-.045-83.892.1-19.325c.025-3.666.474-8.142-.31-11.711-.53-2.418-4.077-5.32-5.772-7.172" style="display:inline"/><path fill="#02c2fe" d="M40.932 381.479c1.716-5.776 4.472-11.171 7.16-16.543q1.303-2.54 2.676-5.043t2.816-4.966q1.442-2.465 2.952-4.887 1.51-2.423 3.087-4.802 1.577-2.38 3.22-4.714t3.35-4.623 3.477-4.528 3.602-4.429 3.723-4.327 3.843-4.22q1.95-2.086 3.959-4.115 2.008-2.029 4.072-4t4.182-3.886 4.288-3.77 4.392-3.647q2.22-1.793 4.49-3.524 10.314-7.86 21.282-14.779t22.505-12.84c3.12-1.609 6.696-3.737 10.087-4.594 4.73-1.197 16.536-.39 21.888-.39l54.59.123 162.285.237 71.829-.097q9.339.006 18.676-.133c4.92-.068 10.038-.367 14.929.248l-.178.532c-2.036 6.166-1.03 34.406-1.023 42.539.006 8.357.185 16.762-.08 25.113-.145 4.57-.738 9.11-.824 13.684-.257 13.72-.048 27.482-.051 41.206l-.015 28.386c-.016 10.88.124 22.244-1.822 32.977-5.583 30.788-31.433 53.204-58.03 66.816-12.446 6.37-26.297 11.749-39.8 15.474-4.153 1.146-8.453 1.814-12.635 2.866-7.358 1.85-14.554 3.807-22.07 4.975-6.181.96-12.534 1.346-18.765 1.924-8.146.757-18.421 1.629-26.51.45-1.275-4.023-3.587-5.712-6.943-7.987-3.278-1.44-6.258-1.971-9.808-2.346-.594-1.738-1.803-3.036-2.957-4.436-13.67-16.587-29.507-23.692-50.641-25.66-1.49-2.972-2.896-5.418-5.323-7.745-2.972-1.964-5.986-4.021-9.753-3.328-3.42.628-6.011 3.337-7.866 6.12-.628.942-1.196 1.941-1.74 2.934-3.653 3.836-5.691 6.91-5.52 12.45.14 4.497 1.333 8.905 2.44 13.24-7.802-2.667-15.586-5.04-23.208-8.22-3.508-1.463-6.734-3.398-10.184-4.9 16.949-16.495 31.277-35.34 41.183-56.87 14.86-32.301 19.989-72.04 13.03-107.005-1.664-8.36-4.385-16.78-7.365-24.756-3.735-10.002-12.227-30.24-18.464-38.387-1.808-2.362-3.922-4.43-6.693-5.62-3.03-1.3-6.618-1.536-9.698-.271-3.01 1.235-5.48 3.824-6.663 6.844-1.026 2.618-.92 5.316-.213 8 1.215 4.615 4.155 8.738 6.289 12.97q4.274 8.566 8.163 17.314c4.67 8.859 7.039 18.083 9.046 27.823-1.536.044-2.602.046-3.75 1.23-1.643 1.698-2.502 4.023-4.018 5.817-1.316 1.556-3.684 2.693-4.776 4.345-.672 1.017-.686 2.74-.928 3.949-.043 11.3-.081 22.24-1.794 33.465-3.508 22.979-14.7 47.549-31.254 64.049-7.75 7.724-15.782 11.215-26.775 11.106-28.25-.28-64.968-26.923-87.954-42.477-4.08.093-8.652-.218-12.66.464l-2.57-3.086c12.626-.18 25.373-.286 37.977.547 3.412 5.972 6.694 12.91 13.716 15.25 3.099 1.034 6.564 1.033 9.502-.495 3.22-1.676 5.622-5.03 6.602-8.48 1.593-5.611-.35-11.547-3.048-16.486-14.027-25.686-41.256-30.425-66.94-38.055" style="display:inline"/><path fill="#6a99df" d="M210.555 322.513c4.67 8.859 7.039 18.083 9.046 27.823-1.536.043-2.602.045-3.75 1.23-1.643 1.698-2.502 4.023-4.018 5.817-1.316 1.556-3.684 2.693-4.776 4.345-.672 1.017-.686 2.74-.928 3.949-.097-3.753 1.206-40.12 1.664-41.418.428-1.214 1.89-.79 2.762-1.746" style="display:inline"/><path fill="#010126" d="M250.453 549.689c.543-.993 1.111-1.992 1.739-2.934 1.855-2.784 4.447-5.493 7.866-6.121 3.767-.693 6.781 1.364 9.753 3.328 2.427 2.327 3.834 4.773 5.323 7.745 21.134 1.968 36.971 9.073 50.641 25.66 1.154 1.4 2.363 2.698 2.957 4.436 3.55.375 6.53.906 9.808 2.346 3.356 2.275 5.668 3.964 6.943 7.988q.023 1.155.021 2.311c-.015 3.724-.948 7.227-3.731 9.856-3.403 3.215-7.141 3.356-11.557 3.188-23.84-.911-50.217-10.933-66.548-28.554-6.292-6.79-13.819-16.246-13.36-26.091z" style="display:inline" transform="translate(-22.994 -51.965)"/><path fill="#02c2fe" d="M275.134 551.707c21.134 1.968 36.971 9.073 50.641 25.66 1.154 1.4 2.363 2.698 2.957 4.436q-4.575-.385-9.086-1.24-4.512-.856-8.91-2.173c-15.14-4.465-27.945-12.587-35.602-26.683" style="display:inline" transform="translate(-22.994 -51.965)"/><path fill="#fefefe" d="M269.811 543.962q.965-.016 1.931-.007.965.008 1.93.041.965.032 1.929.089t1.926.138q.963.08 1.922.185.96.105 1.917.234t1.91.281q.954.153 1.903.329t1.894.377 1.884.424 1.873.47 1.86.518 1.847.564 1.832.609 1.816.656 1.799.7q.896.362 1.782.746t1.762.789 1.742.834 1.72.877 1.698.919 1.674.962q.832.491 1.65 1.003.819.512 1.625 1.044.805.532 1.597 1.085t1.57 1.124 1.542 1.163 1.512 1.201 1.481 1.239q.733.628 1.45 1.275t1.418 1.311q.7.664 1.384 1.346c5.545 5.47 9.195 10.936 12.949 17.661-3.278-1.44-6.258-1.971-9.808-2.346-.594-1.738-1.803-3.036-2.957-4.436-13.67-16.587-29.507-23.692-50.641-25.66-1.489-2.972-2.896-5.418-5.323-7.745m162.417-98.202c2.289 3.591 1.116 11.601.223 15.621q-.241 1.105-.536 2.196-.294 1.091-.643 2.167-.348 1.075-.749 2.132t-.854 2.093-.956 2.048-1.056 1.998-1.153 1.944-1.247 1.885-1.339 1.821-1.427 1.752q-.736.859-1.512 1.68-.777.822-1.593 1.604t-1.67 1.523q-.854.74-1.743 1.438t-1.812 1.351-1.877 1.26a64 64 0 0 1-2.9 1.742c3.09 15.413 6.528 30.774 9.808 46.15 1.596 7.483 3.841 15.189 4.576 22.807q-21.486.488-42.976.316c-10.166-.001-20.411.245-30.568-.038-.068-7.736 1.911-15.594 3.329-23.171 1.479-7.906 2.849-15.853 4.469-23.731 1.557-7.572 3.364-15.13 4.625-22.756-9.787-5.281-19.05-17.078-22.218-27.71-1.879-6.306-1.687-12.468-.578-18.885l.482 6.484c.205 4.021 1.252 7.981 2.736 11.712 4.293 10.803 13.212 20.22 23.905 24.825-.359 7.396-2.358 14.931-3.8 22.19-3.046 15.345-6.583 30.729-9.082 46.159l65.149.043c-2.423-8.358-3.826-17.334-5.674-25.858-3.034-13.998-6.422-28.021-8.64-42.172 5.328-2.176 9.75-5.238 13.838-9.293 9.02-8.947 13.365-20.746 13.463-33.327" style="display:inline" transform="translate(-22.994 -51.965)"/><path fill="#010126" d="M317.339 399.516c-.15-11.242 2.639-22.171 9.591-31.163q.696-.897 1.436-1.759t1.521-1.687 1.602-1.61 1.679-1.529 1.753-1.444 1.822-1.356 1.886-1.265 1.946-1.171 2.001-1.074 2.052-.973q1.038-.462 2.097-.872 1.06-.409 2.138-.767 1.078-.357 2.173-.661 1.094-.303 2.202-.553 1.109-.249 2.228-.444t2.246-.334c12.587-1.529 24.156 1.424 34.124 9.365 11.396 9.08 15.841 19.444 17.398 33.576-.098 12.581-4.443 24.38-13.463 33.327-4.088 4.055-8.51 7.117-13.838 9.293 2.218 14.151 5.606 28.174 8.64 42.172 1.848 8.524 3.251 17.5 5.674 25.858l-65.149-.043c2.499-15.43 6.036-30.814 9.082-46.159 1.442-7.259 3.441-14.794 3.8-22.19-10.693-4.605-19.612-14.022-23.905-24.825-1.484-3.731-2.531-7.691-2.736-11.712"/><path fill="#010126" d="M156.36 357.211c11.919-.613 21.66.985 31.426 8.225 10.229 7.584 17.592 19.335 19.405 32.009q.188 1.234.316 2.476.127 1.243.192 2.49.066 1.246.07 2.495.003 1.249-.054 2.496-.058 1.247-.178 2.49t-.3 2.479q-.181 1.235-.423 2.46t-.544 2.436-.664 2.407-.782 2.371-.898 2.329-1.012 2.282q-.535 1.129-1.124 2.23t-1.233 2.17q-.643 1.071-1.339 2.108-.695 1.037-1.441 2.038c-8.229 10.961-19.054 16.495-32.401 18.449-12.632.466-24.251-2.671-34.116-10.806-9.518-7.849-16.824-20.693-17.947-33.049-1.185-13.034 2.556-26.167 11.104-36.188 8.173-9.58 19.407-15.451 31.943-16.397" style="display:inline" transform="translate(-22.994 -51.965)"/><path fill="#fefefe" d="M133.11 328.601c5.84-.499 12.796-.141 17.739 3.383q.493.357.947.762t.866.854q.411.448.775.936.365.487.678 1.009t.573 1.072q.259.551.462 1.125t.347 1.165.228 1.194c.203 1.429.005 2.815-.927 3.97-3.782 4.692-12.674 2.235-17.944 2.968-1.733 1.388-1.1 7.16-3.159 10.383-1.558 1.17-3.205 1.967-5.11 2.393-3.503.782-7.135.318-10.126-1.744q-.515-.362-.992-.773t-.911-.868-.819-.953q-.387-.498-.721-1.031-.335-.533-.615-1.097t-.503-1.153-.385-1.197q-.163-.609-.265-1.23c-.75-4.315.755-8.587 3.283-12.054 3.999-5.485 10.062-8.111 16.579-9.114"/></svg>